<svg width="72" height="12" viewBox="0 0 72 12" fill="none" xmlns="http://www.w3.org/2000/svg">
<path d="M5.71468 0.878115C5.80449 0.601722 6.19551 0.601722 6.28532 0.878115L7.27973 3.9386C7.31989 4.06221 7.43508 4.1459 7.56505 4.1459H10.783C11.0737 4.1459 11.1945 4.51778 10.9594 4.6886L8.35596 6.58009C8.25082 6.65648 8.20682 6.79189 8.24698 6.9155L9.24139 9.97599C9.3312 10.2524 9.01486 10.4822 8.77974 10.3114L6.17634 8.41991C6.07119 8.34352 5.92881 8.34352 5.82366 8.41991L3.22026 10.3114C2.98514 10.4822 2.6688 10.2524 2.75861 9.97599L3.75302 6.9155C3.79318 6.79189 3.74918 6.65648 3.64404 6.58009L1.04063 4.6886C0.805517 4.51778 0.926349 4.1459 1.21697 4.1459H4.43495C4.56492 4.1459 4.68011 4.06221 4.72027 3.9386L5.71468 0.878115Z" fill="#FFE600"/>
<path d="M20.7147 0.878115C20.8045 0.601722 21.1955 0.601722 21.2853 0.878115L22.2797 3.9386C22.3199 4.06221 22.4351 4.1459 22.565 4.1459H25.783C26.0737 4.1459 26.1945 4.51778 25.9594 4.6886L23.356 6.58009C23.2508 6.65648 23.2068 6.79189 23.247 6.9155L24.2414 9.97599C24.3312 10.2524 24.0149 10.4822 23.7797 10.3114L21.1763 8.41991C21.0712 8.34352 20.9288 8.34352 20.8237 8.41991L18.2203 10.3114C17.9851 10.4822 17.6688 10.2524 17.7586 9.97599L18.753 6.9155C18.7932 6.79189 18.7492 6.65648 18.644 6.58009L16.0406 4.6886C15.8055 4.51778 15.9263 4.1459 16.217 4.1459H19.435C19.5649 4.1459 19.6801 4.06221 19.7203 3.9386L20.7147 0.878115Z" fill="#FFE600"/>
<path d="M35.7147 0.878115C35.8045 0.601722 36.1955 0.601722 36.2853 0.878115L37.2797 3.9386C37.3199 4.06221 37.4351 4.1459 37.565 4.1459H40.783C41.0737 4.1459 41.1945 4.51778 40.9594 4.6886L38.356 6.58009C38.2508 6.65648 38.2068 6.79189 38.247 6.9155L39.2414 9.97599C39.3312 10.2524 39.0149 10.4822 38.7797 10.3114L36.1763 8.41991C36.0712 8.34352 35.9288 8.34352 35.8237 8.41991L33.2203 10.3114C32.9851 10.4822 32.6688 10.2524 32.7586 9.97599L33.753 6.9155C33.7932 6.79189 33.7492 6.65648 33.644 6.58009L31.0406 4.6886C30.8055 4.51778 30.9263 4.1459 31.217 4.1459H34.435C34.5649 4.1459 34.6801 4.06221 34.7203 3.9386L35.7147 0.878115Z" fill="#FFE600"/>
<path d="M50.7147 0.878115C50.8045 0.601722 51.1955 0.601722 51.2853 0.878115L52.2797 3.9386C52.3199 4.06221 52.4351 4.1459 52.565 4.1459H55.783C56.0737 4.1459 56.1945 4.51778 55.9594 4.6886L53.356 6.58009C53.2508 6.65648 53.2068 6.79189 53.247 6.9155L54.2414 9.97599C54.3312 10.2524 54.0149 10.4822 53.7797 10.3114L51.1763 8.41991C51.0712 8.34352 50.9288 8.34352 50.8237 8.41991L48.2203 10.3114C47.9851 10.4822 47.6688 10.2524 47.7586 9.97599L48.753 6.9155C48.7932 6.79189 48.7492 6.65648 48.644 6.58009L46.0406 4.6886C45.8055 4.51778 45.9263 4.1459 46.217 4.1459H49.435C49.5649 4.1459 49.6801 4.06221 49.7203 3.9386L50.7147 0.878115Z" fill="#FFE600"/>
<path d="M65.7147 0.878115C65.8045 0.601722 66.1955 0.601722 66.2853 0.878115L67.2797 3.9386C67.3199 4.06221 67.4351 4.1459 67.565 4.1459H70.783C71.0737 4.1459 71.1945 4.51778 70.9594 4.6886L68.356 6.58009C68.2508 6.65648 68.2068 6.79189 68.247 6.9155L69.2414 9.97599C69.3312 10.2524 69.0149 10.4822 68.7797 10.3114L66.1763 8.41991C66.0712 8.34352 65.9288 8.34352 65.8237 8.41991L63.2203 10.3114C62.9851 10.4822 62.6688 10.2524 62.7586 9.97599L63.753 6.9155C63.7932 6.79189 63.7492 6.65648 63.644 6.58009L61.0406 4.6886C60.8055 4.51778 60.9263 4.1459 61.217 4.1459H64.435C64.5649 4.1459 64.6801 4.06221 64.7203 3.9386L65.7147 0.878115Z" fill="#FFE600"/>
</svg>
